<mxfile host="app.diagrams.net" modified="2024-03-18T13:34:30.356Z" agent="Mozilla/5.0 (Windows NT 10.0; Win64; x64) AppleWebKit/537.36 (KHTML, like Gecko) Chrome/122.0.0.0 Safari/537.36" etag="KdvxbYnf13E41dDVaNyo" version="24.0.7" type="github">
  <diagram name="Page-1" id="3mGJDqORtcJUpP6yf5p0">
    <mxGraphModel dx="1050" dy="522" grid="1" gridSize="10" guides="1" tooltips="1" connect="1" arrows="1" fold="1" page="1" pageScale="1" pageWidth="850" pageHeight="1100" math="0" shadow="0">
      <root>
        <mxCell id="0" />
        <mxCell id="1" parent="0" />
        <mxCell id="ah-95mT-9lsRJMBLoWjS-29" style="edgeStyle=elbowEdgeStyle;rounded=0;orthogonalLoop=1;jettySize=auto;html=1;" parent="1" source="ah-95mT-9lsRJMBLoWjS-4" target="ah-95mT-9lsRJMBLoWjS-13" edge="1">
          <mxGeometry relative="1" as="geometry">
            <mxPoint x="120" y="430" as="targetPoint" />
          </mxGeometry>
        </mxCell>
        <mxCell id="ah-95mT-9lsRJMBLoWjS-4" value="" style="sketch=0;outlineConnect=0;fontColor=#232F3E;gradientColor=none;fillColor=#232F3D;strokeColor=none;dashed=0;verticalLabelPosition=bottom;verticalAlign=top;align=center;html=1;fontSize=12;fontStyle=0;aspect=fixed;pointerEvents=1;shape=mxgraph.aws4.users;" parent="1" vertex="1">
          <mxGeometry x="50" y="300" width="48" height="48" as="geometry" />
        </mxCell>
        <mxCell id="ah-95mT-9lsRJMBLoWjS-16" style="edgeStyle=orthogonalEdgeStyle;rounded=0;orthogonalLoop=1;jettySize=auto;html=1;" parent="1" source="ah-95mT-9lsRJMBLoWjS-5" edge="1">
          <mxGeometry relative="1" as="geometry">
            <mxPoint x="440" y="199" as="targetPoint" />
          </mxGeometry>
        </mxCell>
        <mxCell id="ah-95mT-9lsRJMBLoWjS-5" value="" style="sketch=0;outlineConnect=0;fontColor=#232F3E;gradientColor=none;fillColor=#ED7100;strokeColor=none;dashed=0;verticalLabelPosition=bottom;verticalAlign=top;align=center;html=1;fontSize=12;fontStyle=0;aspect=fixed;pointerEvents=1;shape=mxgraph.aws4.lambda_function;" parent="1" vertex="1">
          <mxGeometry x="238" y="170" width="58" height="58" as="geometry" />
        </mxCell>
        <mxCell id="ah-95mT-9lsRJMBLoWjS-19" style="edgeStyle=orthogonalEdgeStyle;rounded=0;orthogonalLoop=1;jettySize=auto;html=1;" parent="1" source="ah-95mT-9lsRJMBLoWjS-6" edge="1">
          <mxGeometry relative="1" as="geometry">
            <mxPoint x="272" y="360" as="targetPoint" />
          </mxGeometry>
        </mxCell>
        <mxCell id="ah-95mT-9lsRJMBLoWjS-6" value="Lambda" style="text;strokeColor=none;align=center;fillColor=none;html=1;verticalAlign=middle;whiteSpace=wrap;rounded=0;" parent="1" vertex="1">
          <mxGeometry x="242" y="230" width="60" height="30" as="geometry" />
        </mxCell>
        <mxCell id="ah-95mT-9lsRJMBLoWjS-7" value="" style="sketch=0;points=[[0,0,0],[0.25,0,0],[0.5,0,0],[0.75,0,0],[1,0,0],[0,1,0],[0.25,1,0],[0.5,1,0],[0.75,1,0],[1,1,0],[0,0.25,0],[0,0.5,0],[0,0.75,0],[1,0.25,0],[1,0.5,0],[1,0.75,0]];outlineConnect=0;fontColor=#232F3E;fillColor=none;strokeColor=#CC00CC;dashed=0;verticalLabelPosition=bottom;verticalAlign=top;align=center;html=1;fontSize=12;fontStyle=0;aspect=fixed;shape=mxgraph.aws4.resourceIcon;resIcon=mxgraph.aws4.dynamodb;gradientColor=default;" parent="1" vertex="1">
          <mxGeometry x="457" y="150" width="58" height="58" as="geometry" />
        </mxCell>
        <mxCell id="ah-95mT-9lsRJMBLoWjS-8" value="DynamoDB" style="text;strokeColor=none;align=center;fillColor=none;html=1;verticalAlign=middle;whiteSpace=wrap;rounded=0;" parent="1" vertex="1">
          <mxGeometry x="460" y="228" width="55" height="22" as="geometry" />
        </mxCell>
        <mxCell id="ah-95mT-9lsRJMBLoWjS-23" style="edgeStyle=orthogonalEdgeStyle;rounded=0;orthogonalLoop=1;jettySize=auto;html=1;" parent="1" source="ah-95mT-9lsRJMBLoWjS-9" edge="1">
          <mxGeometry relative="1" as="geometry">
            <mxPoint x="480" y="416" as="targetPoint" />
          </mxGeometry>
        </mxCell>
        <mxCell id="ah-95mT-9lsRJMBLoWjS-9" value="Amazon Route 53" style="sketch=0;outlineConnect=0;fontColor=#232F3E;gradientColor=none;strokeColor=#ffffff;fillColor=#232F3E;dashed=0;verticalLabelPosition=middle;verticalAlign=bottom;align=center;html=1;whiteSpace=wrap;fontSize=10;fontStyle=1;spacing=3;shape=mxgraph.aws4.productIcon;prIcon=mxgraph.aws4.route_53;" parent="1" vertex="1">
          <mxGeometry x="376.06" y="376" width="50" height="80" as="geometry" />
        </mxCell>
        <mxCell id="ah-95mT-9lsRJMBLoWjS-24" style="edgeStyle=orthogonalEdgeStyle;rounded=0;orthogonalLoop=1;jettySize=auto;html=1;" parent="1" source="ah-95mT-9lsRJMBLoWjS-10" edge="1">
          <mxGeometry relative="1" as="geometry">
            <mxPoint x="590" y="421" as="targetPoint" />
          </mxGeometry>
        </mxCell>
        <mxCell id="ah-95mT-9lsRJMBLoWjS-10" value="Amazon Cloudfront" style="sketch=0;outlineConnect=0;fontColor=#232F3E;gradientColor=none;strokeColor=#ffffff;fillColor=#232F3E;dashed=0;verticalLabelPosition=middle;verticalAlign=bottom;align=center;html=1;whiteSpace=wrap;fontSize=10;fontStyle=1;spacing=3;shape=mxgraph.aws4.productIcon;prIcon=mxgraph.aws4.cloudfront;" parent="1" vertex="1">
          <mxGeometry x="486.06" y="376" width="55" height="90" as="geometry" />
        </mxCell>
        <mxCell id="ah-95mT-9lsRJMBLoWjS-11" value="Amazon S3" style="sketch=0;outlineConnect=0;fontColor=#232F3E;gradientColor=none;strokeColor=#ffffff;fillColor=#232F3E;dashed=0;verticalLabelPosition=middle;verticalAlign=bottom;align=center;html=1;whiteSpace=wrap;fontSize=10;fontStyle=1;spacing=3;shape=mxgraph.aws4.productIcon;prIcon=mxgraph.aws4.s3;" parent="1" vertex="1">
          <mxGeometry x="598.06" y="376" width="60" height="80" as="geometry" />
        </mxCell>
        <mxCell id="ah-95mT-9lsRJMBLoWjS-25" style="edgeStyle=orthogonalEdgeStyle;rounded=0;orthogonalLoop=1;jettySize=auto;html=1;" parent="1" source="ah-95mT-9lsRJMBLoWjS-13" edge="1">
          <mxGeometry relative="1" as="geometry">
            <mxPoint x="370" y="417.80000000000007" as="targetPoint" />
          </mxGeometry>
        </mxCell>
        <mxCell id="ah-95mT-9lsRJMBLoWjS-26" style="edgeStyle=orthogonalEdgeStyle;rounded=0;orthogonalLoop=1;jettySize=auto;html=1;" parent="1" source="ah-95mT-9lsRJMBLoWjS-13" edge="1">
          <mxGeometry relative="1" as="geometry">
            <mxPoint x="248.94500000000016" y="270" as="targetPoint" />
          </mxGeometry>
        </mxCell>
        <mxCell id="ah-95mT-9lsRJMBLoWjS-13" value="" style="sketch=0;pointerEvents=1;shadow=0;dashed=0;html=1;strokeColor=none;fillColor=#434445;aspect=fixed;labelPosition=center;verticalLabelPosition=bottom;verticalAlign=top;align=center;outlineConnect=0;shape=mxgraph.vvd.laptop;" parent="1" vertex="1">
          <mxGeometry x="195.89" y="379.6" width="106.11" height="76.4" as="geometry" />
        </mxCell>
        <mxCell id="ah-95mT-9lsRJMBLoWjS-14" value="" style="shape=image;html=1;verticalAlign=top;verticalLabelPosition=bottom;labelBackgroundColor=#ffffff;imageAspect=0;aspect=fixed;image=https://cdn4.iconfinder.com/data/icons/ionicons/512/icon-ios7-world-128.png" parent="1" vertex="1">
          <mxGeometry x="223.95" y="388.8" width="48" height="48" as="geometry" />
        </mxCell>
        <mxCell id="ah-95mT-9lsRJMBLoWjS-18" style="edgeStyle=orthogonalEdgeStyle;rounded=0;orthogonalLoop=1;jettySize=auto;html=1;entryX=1.069;entryY=0.155;entryDx=0;entryDy=0;entryPerimeter=0;" parent="1" source="ah-95mT-9lsRJMBLoWjS-7" target="ah-95mT-9lsRJMBLoWjS-5" edge="1">
          <mxGeometry relative="1" as="geometry" />
        </mxCell>
        <mxCell id="DTBQeKrMP1faP-s7X1D7-1" value="AWS Cloud" style="sketch=0;outlineConnect=0;gradientColor=none;html=1;whiteSpace=wrap;fontSize=12;fontStyle=0;shape=mxgraph.aws4.group;grIcon=mxgraph.aws4.group_aws_cloud;strokeColor=#858B94;fillColor=none;verticalAlign=top;align=left;spacingLeft=30;fontColor=#858B94;dashed=0;" vertex="1" parent="1">
          <mxGeometry x="130" y="100" width="570" height="400" as="geometry" />
        </mxCell>
      </root>
    </mxGraphModel>
  </diagram>
</mxfile>
